<svg width="800" height="470" viewBox="0 0 910 570" fill="none" xmlns="http://www.w3.org/2000/svg">
<g clip-path="url(#clip0_205_4)">
<path d="M197.172 505.963C223.309 505.963 244.497 482.865 244.497 454.372C244.497 425.879 223.309 402.78 197.172 402.78C171.035 402.78 149.847 425.879 149.847 454.372C149.847 482.865 171.035 505.963 197.172 505.963Z" fill="#F2F2F2"/>
<path d="M204.867 498.413C231.004 498.413 252.192 475.315 252.192 446.822C252.192 418.329 231.004 395.23 204.867 395.23C178.73 395.23 157.542 418.329 157.542 446.822C157.542 475.315 178.73 498.413 204.867 498.413Z" fill="#F45221"/>
<path d="M828.519 389.737H242.98V391.479H828.519V389.737Z" fill="#3F3D56"/>
<path d="M546.232 16.2429H338.402V11.5732H244.163V16.2429H35.4761C33.63 16.2429 31.8019 16.6393 30.0963 17.4095C28.3907 18.1797 26.8409 19.3086 25.5355 20.7317C24.2301 22.1548 23.1946 23.8442 22.4881 25.7036C21.7816 27.5629 21.418 29.5558 21.418 31.5684V341.806C21.418 345.87 22.8991 349.768 25.5355 352.642C28.1719 355.517 31.7477 357.131 35.4761 357.131H546.232C549.96 357.131 553.536 355.517 556.173 352.642C558.809 349.768 560.29 345.87 560.29 341.806V31.5684C560.29 29.5558 559.927 27.5629 559.22 25.7036C558.514 23.8442 557.478 22.1548 556.173 20.7317C554.867 19.3086 553.317 18.1797 551.612 17.4095C549.906 16.6393 548.078 16.2429 546.232 16.2429Z" fill="#3F3D56"/>
<path d="M541.442 43.3273H40.2656V351.528H541.442V43.3273Z" fill="#F45221"/>
<path d="M290.425 34.9218C293.264 34.9218 295.566 32.4129 295.566 29.3181C295.566 26.2233 293.264 23.7145 290.425 23.7145C287.587 23.7145 285.285 26.2233 285.285 29.3181C285.285 32.4129 287.587 34.9218 290.425 34.9218Z" fill="#F45221"/>
<path opacity="0.1" d="M398.114 351.528H40.2656V43.3276L398.114 351.528Z" fill="black"/>
<path d="M118.684 328.465C145.291 328.465 166.859 304.952 166.859 275.948C166.859 246.943 145.291 223.43 118.684 223.43C92.0783 223.43 70.5098 246.943 70.5098 275.948C70.5098 304.952 92.0783 328.465 118.684 328.465Z" fill="#F2F2F2"/>
<path d="M454.179 209.542H407.364V220.206H454.179V209.542Z" fill="#3F3D56"/>
<path d="M510.777 126.514H350.766V131.085H510.777V126.514Z" fill="#3F3D56"/>
<path d="M510.777 140.987H350.766V145.557H510.777V140.987Z" fill="#3F3D56"/>
<path d="M510.777 155.46H350.766V160.03H510.777V155.46Z" fill="#3F3D56"/>
<path d="M510.777 169.932H350.766V174.503H510.777V169.932Z" fill="#3F3D56"/>
<path d="M510.777 184.405H350.766V188.976H510.777V184.405Z" fill="#3F3D56"/>
<path d="M510.777 49.5801H491.212V70.9084H510.777V49.5801Z" fill="#F2F2F2"/>
<path d="M519.861 80.8108H496.104V54.9121H519.861V80.8108ZM497.136 79.6848H518.828V56.0382H497.136V79.6848Z" fill="#3F3D56"/>
<path d="M574.362 345.924H525.45V342.082C525.45 341.982 525.432 341.883 525.397 341.791C525.362 341.698 525.311 341.614 525.246 341.544C525.181 341.473 525.104 341.417 525.019 341.378C524.934 341.34 524.843 341.32 524.752 341.32H507.982C507.89 341.32 507.799 341.34 507.715 341.378C507.63 341.417 507.553 341.473 507.488 341.544C507.423 341.614 507.372 341.698 507.336 341.791C507.301 341.883 507.283 341.982 507.283 342.082V345.924H496.802V342.082C496.802 341.982 496.784 341.883 496.749 341.791C496.714 341.698 496.662 341.614 496.598 341.544C496.533 341.473 496.456 341.417 496.371 341.378C496.286 341.34 496.195 341.32 496.103 341.32H479.334C479.242 341.32 479.151 341.34 479.066 341.378C478.982 341.417 478.905 341.473 478.84 341.544C478.775 341.614 478.723 341.698 478.688 341.791C478.653 341.883 478.635 341.982 478.635 342.082V345.924H468.154V342.082C468.154 341.982 468.136 341.883 468.101 341.791C468.066 341.698 468.014 341.614 467.949 341.544C467.884 341.473 467.807 341.417 467.723 341.378C467.638 341.34 467.547 341.32 467.455 341.32H450.686C450.594 341.32 450.503 341.34 450.418 341.378C450.333 341.417 450.256 341.473 450.191 341.544C450.127 341.614 450.075 341.698 450.04 341.791C450.005 341.883 449.987 341.982 449.987 342.082V345.924H439.506V342.082C439.506 341.982 439.488 341.883 439.453 341.791C439.417 341.698 439.366 341.614 439.301 341.544C439.236 341.473 439.159 341.417 439.074 341.378C438.99 341.34 438.899 341.32 438.807 341.32H422.037C421.946 341.32 421.855 341.34 421.77 341.378C421.685 341.417 421.608 341.473 421.543 341.544C421.478 341.614 421.427 341.698 421.392 341.791C421.357 341.883 421.339 341.982 421.339 342.082V345.924H410.857V342.082C410.857 341.982 410.839 341.883 410.804 341.791C410.769 341.698 410.718 341.614 410.653 341.544C410.588 341.473 410.511 341.417 410.426 341.378C410.341 341.34 410.251 341.32 410.159 341.32H393.389C393.297 341.32 393.206 341.34 393.122 341.378C393.037 341.417 392.96 341.473 392.895 341.544C392.83 341.614 392.779 341.698 392.744 341.791C392.708 341.883 392.69 341.982 392.69 342.082V345.924H382.209V342.082C382.209 341.982 382.191 341.883 382.156 341.791C382.121 341.698 382.07 341.614 382.005 341.544C381.94 341.473 381.863 341.417 381.778 341.378C381.693 341.34 381.602 341.32 381.511 341.32H364.741C364.649 341.32 364.558 341.34 364.473 341.378C364.389 341.417 364.312 341.473 364.247 341.544C364.182 341.614 364.13 341.698 364.095 341.791C364.06 341.883 364.042 341.982 364.042 342.082V345.924H353.561V342.082C353.561 341.982 353.543 341.883 353.508 341.791C353.473 341.698 353.421 341.614 353.356 341.544C353.292 341.473 353.214 341.417 353.13 341.378C353.045 341.34 352.954 341.32 352.862 341.32H221.5C221.408 341.32 221.317 341.34 221.232 341.378C221.148 341.417 221.071 341.473 221.006 341.544C220.941 341.614 220.889 341.698 220.854 341.791C220.819 341.883 220.801 341.982 220.801 342.082V345.924H210.32V342.082C210.32 341.982 210.302 341.883 210.267 341.791C210.232 341.698 210.18 341.614 210.115 341.544C210.05 341.473 209.973 341.417 209.889 341.378C209.804 341.34 209.713 341.32 209.621 341.32H192.851C192.76 341.32 192.669 341.34 192.584 341.378C192.499 341.417 192.422 341.473 192.357 341.544C192.292 341.614 192.241 341.698 192.206 341.791C192.171 341.883 192.153 341.982 192.153 342.082V345.924H181.672V342.082C181.672 341.982 181.654 341.883 181.618 341.791C181.583 341.698 181.532 341.614 181.467 341.544C181.402 341.473 181.325 341.417 181.24 341.378C181.156 341.34 181.065 341.32 180.973 341.32H164.203C164.111 341.32 164.021 341.34 163.936 341.378C163.851 341.417 163.774 341.473 163.709 341.544C163.644 341.614 163.593 341.698 163.558 341.791C163.523 341.883 163.505 341.982 163.505 342.082V345.924H153.023V342.082C153.023 341.982 153.005 341.883 152.97 341.791C152.935 341.698 152.884 341.614 152.819 341.544C152.754 341.473 152.677 341.417 152.592 341.378C152.507 341.34 152.416 341.32 152.325 341.32H135.555C135.463 341.32 135.372 341.34 135.288 341.378C135.203 341.417 135.126 341.473 135.061 341.544C134.996 341.614 134.945 341.698 134.909 341.791C134.874 341.883 134.856 341.982 134.856 342.082V345.924H124.375V342.082C124.375 341.982 124.357 341.883 124.322 341.791C124.287 341.698 124.235 341.614 124.171 341.544C124.106 341.473 124.029 341.417 123.944 341.378C123.859 341.34 123.768 341.32 123.677 341.32H106.907C106.815 341.32 106.724 341.34 106.639 341.378C106.555 341.417 106.478 341.473 106.413 341.544C106.348 341.614 106.296 341.698 106.261 341.791C106.226 341.883 106.208 341.982 106.208 342.082V345.924H95.727V342.082C95.727 341.982 95.7089 341.883 95.6738 341.791C95.6387 341.698 95.5872 341.614 95.5224 341.544C95.4575 341.473 95.3804 341.417 95.2957 341.378C95.2109 341.34 95.12 341.32 95.0283 341.32H78.2586C78.1668 341.32 78.076 341.34 77.9912 341.378C77.9064 341.417 77.8294 341.473 77.7645 341.544C77.6996 341.614 77.6481 341.698 77.613 341.791C77.5779 341.883 77.5598 341.982 77.5598 342.082V345.924H67.0788V342.082C67.0788 341.982 67.0607 341.883 67.0256 341.791C66.9905 341.698 66.939 341.614 66.8741 341.544C66.8092 341.473 66.7322 341.417 66.6474 341.378C66.5627 341.34 66.4718 341.32 66.38 341.32H49.6103C49.5186 341.32 49.4277 341.34 49.3429 341.378C49.2582 341.417 49.1811 341.473 49.1163 341.544C49.0514 341.614 48.9999 341.698 48.9648 341.791C48.9297 341.883 48.9116 341.982 48.9116 342.082V345.924H16.7697C12.3221 345.924 8.05666 347.85 4.91174 351.278C1.76681 354.707 4.23723e-06 359.357 0 364.205V372.472C1.27117e-05 377.32 1.76682 381.97 4.91175 385.399C8.05667 388.827 12.3221 390.753 16.7697 390.753H574.362C578.81 390.753 583.075 388.827 586.22 385.399C589.365 381.97 591.132 377.32 591.132 372.472V364.205C591.132 359.357 589.365 354.707 586.22 351.278C583.075 347.85 578.81 345.924 574.362 345.924Z" fill="#3F3D56"/>
<path d="M130.346 308.749C118.338 308.749 106.6 304.867 96.6165 297.595C86.6327 290.323 78.8512 279.986 74.2561 267.893C69.6611 255.799 68.4588 242.492 70.8013 229.654C73.1439 216.815 78.926 205.023 87.4166 195.767C95.9071 186.511 106.725 180.207 118.502 177.654C130.278 175.1 142.485 176.411 153.579 181.42C164.672 186.429 174.154 194.912 180.825 205.796C187.496 216.68 191.056 229.476 191.056 242.566C191.038 260.112 184.636 276.935 173.255 289.342C161.873 301.75 146.442 308.729 130.346 308.749ZM130.346 178.124C118.654 178.124 107.225 181.903 97.5041 188.984C87.783 196.065 80.2063 206.129 75.7322 217.905C71.258 229.68 70.0874 242.637 72.3683 255.138C74.6492 267.638 80.2792 279.12 88.5463 288.133C96.8134 297.145 107.346 303.283 118.813 305.769C130.28 308.256 142.166 306.979 152.967 302.102C163.769 297.225 173.001 288.965 179.496 278.368C185.992 267.77 189.459 255.311 189.459 242.566C189.441 225.48 183.207 209.101 172.125 197.02C161.043 184.939 146.018 178.143 130.346 178.124Z" fill="#3F3D56"/>
<path d="M671.95 28.3398H468.249V30.0815H671.95V28.3398Z" fill="#3F3D56"/>
<path d="M910 488.141H324.46V489.883H910V488.141Z" fill="#3F3D56"/>
<path d="M357.612 568.258H153.911V570H357.612V568.258Z" fill="#3F3D56"/>
<path d="M398.614 478.96H376.247V503.343H398.614V478.96Z" fill="#F45221"/>
<path d="M412.194 489.41H385.034V459.802H412.194V489.41ZM386.215 488.123H411.013V461.089H386.215V488.123Z" fill="#3F3D56"/>
<path d="M658.233 19.1584H635.866V43.5419H658.233V19.1584Z" fill="#F45221"/>
<path d="M671.813 29.6084H644.653V0H671.813V29.6084ZM645.834 28.3211H670.632V1.28733H645.834V28.3211Z" fill="#3F3D56"/>
<path d="M883.502 478.96H861.135V503.343H883.502V478.96Z" fill="#F45221"/>
<path d="M897.082 489.41H869.922V459.802H897.082V489.41ZM871.103 488.123H895.902V461.089H871.103V488.123Z" fill="#3F3D56"/>
<path d="M844.497 201.998H842.596V145.253C842.596 140.94 841.817 136.669 840.303 132.684C838.789 128.7 836.57 125.079 833.772 122.029C830.975 118.98 827.654 116.56 823.999 114.91C820.344 113.26 816.426 112.41 812.47 112.41H702.189C698.233 112.41 694.315 113.259 690.66 114.91C687.005 116.56 683.684 118.98 680.886 122.029C678.088 125.079 675.869 128.7 674.355 132.684C672.841 136.669 672.062 140.94 672.062 145.253V456.56C672.062 460.873 672.841 465.144 674.355 469.129C675.869 473.113 678.088 476.734 680.886 479.784C683.684 482.833 687.005 485.252 690.66 486.903C694.315 488.553 698.233 489.403 702.189 489.403H812.47C816.426 489.403 820.344 488.553 823.999 486.903C827.654 485.252 830.975 482.833 833.773 479.784C836.57 476.734 838.789 473.113 840.303 469.129C841.817 465.144 842.596 460.873 842.596 456.56V242.39H844.497V201.998Z" fill="#3F3D56"/>
<path d="M836.181 147.183V458.037C836.182 464.542 833.812 470.781 829.594 475.381C825.375 479.982 819.653 482.567 813.686 482.568H702.873C696.906 482.567 691.183 479.982 686.965 475.381C682.746 470.781 680.377 464.542 680.378 458.037V147.183C680.378 140.679 682.749 134.442 686.967 129.843C691.186 125.245 696.907 122.661 702.873 122.66H716.317C715.655 124.429 715.403 126.349 715.582 128.249C715.761 130.15 716.366 131.973 717.344 133.559C718.322 135.145 719.642 136.444 721.189 137.342C722.736 138.24 724.462 138.71 726.214 138.71H789.394C791.146 138.71 792.872 138.24 794.419 137.342C795.966 136.444 797.286 135.145 798.264 133.559C799.242 131.973 799.847 130.15 800.026 128.249C800.205 126.349 799.953 124.429 799.291 122.66H813.686C819.652 122.661 825.373 125.245 829.592 129.843C833.81 134.442 836.18 140.679 836.181 147.183Z" fill="#F45221"/>
<path d="M774.785 327.624H741.774V338.288H774.785V327.624Z" fill="#3F3D56"/>
<path d="M814.693 244.596H701.866V249.166H814.693V244.596Z" fill="#3F3D56"/>
<path d="M814.693 259.069H701.866V263.639H814.693V259.069Z" fill="#3F3D56"/>
<path d="M814.693 273.542H701.866V278.112H814.693V273.542Z" fill="#3F3D56"/>
<path d="M814.693 288.014H701.866V292.585H814.693V288.014Z" fill="#3F3D56"/>
<path d="M814.693 302.487H701.866V307.057H814.693V302.487Z" fill="#3F3D56"/>
<path d="M762.221 183.902H742.656V205.23H762.221V183.902Z" fill="#F2F2F2"/>
<path d="M750.146 189.235V215.134H773.903V189.235H750.146ZM772.872 214.011H751.176V190.359H772.872V214.011Z" fill="#3F3D56"/>
<path opacity="0.1" d="M836.181 424.84V458.037C836.182 464.542 833.812 470.781 829.594 475.381C825.375 479.982 819.653 482.567 813.686 482.568H702.873C696.906 482.567 691.183 479.982 686.965 475.381C682.746 470.781 680.377 464.542 680.378 458.037V290.653L773.737 371.057L775.334 372.433L792.701 387.386L794.322 388.788L836.181 424.84Z" fill="black"/>
<path d="M748.693 472.494C768.047 472.494 783.736 455.39 783.736 434.292C783.736 413.194 768.047 396.09 748.693 396.09C729.34 396.09 713.651 413.194 713.651 434.292C713.651 455.39 729.34 472.494 748.693 472.494Z" fill="#F2F2F2"/>
<path d="M255.762 570C242.016 570 228.58 565.557 217.151 557.232C205.722 548.907 196.814 537.074 191.554 523.23C186.294 509.387 184.917 494.153 187.599 479.457C190.281 464.76 196.9 451.261 206.619 440.665C216.339 430.069 228.722 422.854 242.203 419.93C255.685 417.007 269.658 418.507 282.357 424.242C295.056 429.976 305.91 439.687 313.547 452.146C321.184 464.605 325.26 479.253 325.26 494.237C325.239 514.324 317.91 533.581 304.881 547.785C291.852 561.988 274.187 569.977 255.762 570ZM255.762 420.216C242.332 420.216 229.204 424.557 218.038 432.691C206.872 440.825 198.169 452.385 193.03 465.911C187.891 479.436 186.546 494.319 189.166 508.678C191.786 523.037 198.253 536.226 207.749 546.578C217.245 556.93 229.344 563.98 242.515 566.836C255.686 569.692 269.339 568.226 281.746 562.624C294.153 557.021 304.758 547.534 312.219 535.361C319.68 523.188 323.662 508.877 323.662 494.237C323.642 474.612 316.481 455.798 303.752 441.921C291.023 428.044 273.764 420.238 255.762 420.216Z" fill="#3F3D56"/>
<path d="M759.022 463.758C750.333 463.758 741.838 460.949 734.613 455.686C727.388 450.423 721.756 442.943 718.431 434.191C715.106 425.439 714.236 415.809 715.931 406.518C717.626 397.227 721.811 388.693 727.955 381.994C734.1 375.296 741.928 370.734 750.451 368.886C758.973 367.038 767.807 367.987 775.836 371.612C783.864 375.237 790.725 381.376 795.553 389.252C800.381 397.129 802.958 406.389 802.958 415.862C802.944 428.56 798.311 440.735 790.075 449.714C781.838 458.693 770.67 463.744 759.022 463.758ZM759.022 369.708C750.649 369.708 742.463 372.415 735.5 377.486C728.538 382.558 723.112 389.766 719.907 398.199C716.703 406.633 715.864 415.913 717.498 424.866C719.131 433.819 723.164 442.043 729.085 448.498C735.006 454.953 742.55 459.349 750.762 461.129C758.975 462.91 767.488 461.996 775.224 458.503C782.96 455.01 789.573 449.094 794.225 441.504C798.877 433.914 801.36 424.99 801.36 415.862C801.347 403.625 796.883 391.894 788.946 383.241C781.008 374.588 770.247 369.721 759.022 369.708Z" fill="#3F3D56"/>
</g>
<defs>
<clipPath id="clip0_205_4">
<rect width="910" height="570" fill="white"/>
</clipPath>
</defs>
</svg>
