<svg width="800" height="517" viewBox="0 0 910 547" fill="none" xmlns="http://www.w3.org/2000/svg">
<g clip-path="url(#clip0_205_46)">
<path d="M885.363 545.792L886.713 545.768C886.191 531.997 884.59 518.279 881.922 504.719C876.087 475.688 866.383 456.622 853.082 448.05L852.307 449.064C883.38 469.087 885.347 545.027 885.363 545.792Z" fill="#F1F1F1"/>
<path d="M868.495 545.496L869.844 545.471C869.815 544.1 868.972 511.775 855.106 502.841L854.331 503.854C867.637 512.428 868.488 545.166 868.495 545.496Z" fill="#F1F1F1"/>
<path d="M844.629 449.176C848.356 449.176 851.377 446.404 851.377 442.984C851.377 439.564 848.356 436.791 844.629 436.791C840.903 436.791 837.882 439.564 837.882 442.984C837.882 446.404 840.903 449.176 844.629 449.176Z" fill="#F1F1F1"/>
<path d="M847.971 502.432C851.697 502.432 854.718 499.659 854.718 496.239C854.718 492.819 851.697 490.047 847.971 490.047C844.244 490.047 841.223 492.819 841.223 496.239C841.223 499.659 844.244 502.432 847.971 502.432Z" fill="#F1F1F1"/>
<path d="M871.64 452.888C870.963 457.665 871.666 462.521 873.677 466.971C877.189 463.368 879.491 458.91 880.306 454.134C881.121 449.357 880.413 444.467 878.269 440.051C874.873 443.724 872.587 448.15 871.64 452.888Z" fill="#F1F1F1"/>
<path d="M849.584 470.942C854.592 472.385 859.924 472.597 865.048 471.555C861.795 467.753 857.413 464.896 852.43 463.327C847.448 461.759 842.077 461.546 836.966 462.714C840.314 466.424 844.666 469.261 849.584 470.942Z" fill="#F1F1F1"/>
<path d="M849.335 518.105C852.845 519.117 856.582 519.265 860.174 518.535C857.894 515.87 854.822 513.867 851.33 512.768C847.837 511.668 844.073 511.519 840.49 512.338C842.838 514.938 845.887 516.927 849.335 518.105Z" fill="#F1F1F1"/>
<path d="M310.706 545.792L308.748 545.757C309.505 525.769 311.829 505.858 315.701 486.176C324.171 444.038 338.255 416.364 357.562 403.923L358.687 405.394C313.585 434.457 310.729 544.681 310.706 545.792Z" fill="#F1F1F1"/>
<path d="M335.191 545.362L333.232 545.327C333.274 543.336 334.498 496.418 354.624 483.45L355.749 484.921C336.435 497.366 335.2 544.883 335.191 545.362Z" fill="#F1F1F1"/>
<path d="M369.83 405.558C375.239 405.558 379.624 401.533 379.624 396.569C379.624 391.605 375.239 387.581 369.83 387.581C364.421 387.581 360.037 391.605 360.037 396.569C360.037 401.533 364.421 405.558 369.83 405.558Z" fill="#F1F1F1"/>
<path d="M364.98 482.857C370.389 482.857 374.774 478.832 374.774 473.868C374.774 468.904 370.389 464.88 364.98 464.88C359.571 464.88 355.187 468.904 355.187 473.868C355.187 478.832 359.571 482.857 364.98 482.857Z" fill="#F1F1F1"/>
<path d="M330.626 410.946C331.607 417.879 330.588 424.927 327.669 431.385C322.571 426.156 319.23 419.685 318.047 412.753C316.864 405.821 317.891 398.722 321.004 392.313C325.933 397.644 329.251 404.069 330.626 410.946Z" fill="#F1F1F1"/>
<path d="M362.638 437.15C355.37 439.245 347.63 439.552 340.192 438.039C344.915 432.521 351.275 428.374 358.507 426.097C365.739 423.821 373.534 423.512 380.953 425.208C376.093 430.592 369.777 434.71 362.638 437.15Z" fill="#F1F1F1"/>
<path d="M363 505.605C357.906 507.074 352.48 507.289 347.267 506.229C350.577 502.361 355.035 499.454 360.104 497.858C365.174 496.263 370.637 496.046 375.837 497.235C372.431 501.009 368.004 503.895 363 505.605Z" fill="#F1F1F1"/>
<path d="M159.392 163.022L154.68 136.564L141.374 133.511C141.374 133.511 130.814 130.526 128.345 150.047C125.877 169.569 127.791 206.017 127.791 206.017L98.5773 290.919C96.3341 291.898 94.4457 293.449 93.138 295.386C91.8304 297.324 91.1591 299.567 91.2043 301.846C91.2495 304.125 92.0094 306.344 93.393 308.237C94.7766 310.129 96.7253 311.616 99.0059 312.519C101.286 313.422 103.802 313.702 106.252 313.327C108.701 312.951 110.981 311.936 112.818 310.402C114.656 308.868 115.972 306.881 116.611 304.678C117.249 302.475 117.182 300.15 116.418 297.982L154.403 218.229L159.392 163.022Z" fill="#FFB7B7"/>
<path d="M240.304 142.201L233.319 116.169L244.25 108.567C244.25 108.567 252.685 102.016 263.307 119.08C273.929 136.145 287.762 170.356 287.762 170.356L350.953 237.913C353.434 238.004 355.834 238.75 357.866 240.061C359.898 241.372 361.475 243.193 362.408 245.305C363.342 247.417 363.592 249.731 363.129 251.971C362.667 254.21 361.51 256.28 359.799 257.932C358.088 259.584 355.894 260.749 353.481 261.286C351.067 261.823 348.536 261.711 346.19 260.962C343.844 260.214 341.783 258.861 340.254 257.065C338.724 255.269 337.791 253.107 337.566 250.837L268.512 191.176L240.304 142.201Z" fill="#FFB7B7"/>
<path d="M294.911 531.928L310.757 531.927L318.296 475.833L294.908 475.834L294.911 531.928Z" fill="#FFB7B7"/>
<path d="M290.869 527.179L322.076 527.178H322.077C327.351 527.178 332.409 529.101 336.139 532.524C339.868 535.947 341.964 540.589 341.964 545.43V546.023L290.87 546.024L290.869 527.179Z" fill="#2F2E41"/>
<path d="M95.8651 531.928L111.711 531.927L119.25 475.833L95.8618 475.834L95.8651 531.928Z" fill="#FFB7B7"/>
<path d="M91.8228 527.179L123.029 527.178H123.03C128.305 527.178 133.363 529.101 137.092 532.524C140.822 535.947 142.917 540.589 142.918 545.43V546.023L91.8237 546.024L91.8228 527.179Z" fill="#2F2E41"/>
<path d="M193.05 92.3458C216.72 92.3458 235.908 74.7357 235.908 53.0126C235.908 31.2895 216.72 13.6794 193.05 13.6794C169.381 13.6794 150.192 31.2895 150.192 53.0126C150.192 74.7357 169.381 92.3458 193.05 92.3458Z" fill="#2F2E41"/>
<path d="M159.597 31.8052C166.523 25.4491 167.926 16.432 162.732 11.6649C157.538 6.89784 147.713 8.18599 140.787 14.5421C133.861 20.8982 132.458 29.9153 137.652 34.6824C142.846 39.4494 152.671 38.1613 159.597 31.8052Z" fill="#2F2E41"/>
<path d="M237.719 19.3144C240.605 13.1147 235.642 5.22631 226.635 1.69525C217.628 -1.83581 207.987 0.327562 205.102 6.52728C202.216 12.727 207.179 20.6154 216.186 24.1464C225.193 27.6775 234.834 25.5141 237.719 19.3144Z" fill="#2F2E41"/>
<path d="M226.325 78.4142C235.96 62.2373 229.482 41.9546 211.856 33.1115C194.229 24.2684 172.129 30.2136 162.494 46.3905C152.858 62.5675 159.336 82.8502 176.963 91.6933C194.589 100.536 216.689 94.5911 226.325 78.4142Z" fill="#FFB7B7"/>
<path d="M156.19 41.4054C164.502 46.663 174.367 49.4611 184.462 49.424C180.861 51.7155 176.762 53.2633 172.446 53.9608C185.868 56.603 199.739 56.6746 213.192 54.1709C216.183 53.7309 219.068 52.8214 221.722 51.4823C223.045 50.8044 224.197 49.8787 225.104 48.7653C226.011 47.652 226.653 46.3759 226.987 45.02C227.881 40.333 223.902 36.0747 219.766 33.2049C213.434 28.8781 206.134 25.897 198.393 24.4773C190.651 23.0576 182.663 23.2349 175.006 24.9962C170.006 26.1823 164.997 28.1865 161.749 31.8716C158.502 35.5568 157.54 41.2381 160.634 45.0328L156.19 41.4054Z" fill="#2F2E41"/>
<path d="M176.18 105.812L140.179 132.795L171.635 201.629L172.235 212.642C172.235 212.642 139.581 240.273 119.377 317.46C99.1723 394.647 58.3652 497.21 58.3652 497.21L140.002 515.539L196.762 340.934L269.117 477.917L279.41 518.433L342.516 502.355L318.161 393.626L258.427 224.852L263.332 178.227C263.332 178.227 274.263 154.954 255.274 130.315L249.317 107.163L218.485 102.339L176.18 105.812Z" fill="#2F2E41"/>
<path d="M781.558 350.777H531.615C529.619 350.775 527.706 350.046 526.294 348.751C524.883 347.456 524.089 345.699 524.087 343.868V266.484C524.089 264.652 524.883 262.896 526.294 261.601C527.706 260.305 529.619 259.577 531.615 259.574H781.558C783.554 259.577 785.468 260.305 786.879 261.6C788.291 262.896 789.085 264.652 789.087 266.484V343.868C789.085 345.699 788.291 347.456 786.879 348.751C785.468 350.046 783.554 350.775 781.558 350.777Z" fill="#E5E5E5"/>
<path d="M629.485 280.302H563.235V287.212H629.485V280.302Z" fill="white"/>
<path d="M716.814 288.593C719.309 288.593 721.331 286.737 721.331 284.448C721.331 282.158 719.309 280.302 716.814 280.302C714.319 280.302 712.297 282.158 712.297 284.448C712.297 286.737 714.319 288.593 716.814 288.593Z" fill="#F45221"/>
<path d="M731.871 288.593C734.366 288.593 736.388 286.737 736.388 284.448C736.388 282.158 734.366 280.302 731.871 280.302C729.376 280.302 727.354 282.158 727.354 284.448C727.354 286.737 729.376 288.593 731.871 288.593Z" fill="#F45221"/>
<path d="M746.928 288.593C749.422 288.593 751.445 286.737 751.445 284.448C751.445 282.158 749.422 280.302 746.928 280.302C744.433 280.302 742.411 282.158 742.411 284.448C742.411 286.737 744.433 288.593 746.928 288.593Z" fill="#F45221"/>
<path d="M781.558 448.888H531.615C529.619 448.886 527.706 448.158 526.294 446.862C524.883 445.567 524.089 443.811 524.087 441.979V364.595C524.089 362.764 524.883 361.007 526.294 359.712C527.706 358.417 529.619 357.688 531.615 357.686H781.558C783.554 357.688 785.468 358.417 786.879 359.712C788.291 361.007 789.085 362.764 789.087 364.595V441.979C789.085 443.811 788.291 445.567 786.879 446.862C785.468 448.158 783.554 448.886 781.558 448.888Z" fill="#E5E5E5"/>
<path d="M629.485 378.414H563.235V385.323H629.485V378.414Z" fill="white"/>
<path d="M716.814 386.705C719.309 386.705 721.331 384.849 721.331 382.559C721.331 380.27 719.309 378.414 716.814 378.414C714.319 378.414 712.297 380.27 712.297 382.559C712.297 384.849 714.319 386.705 716.814 386.705Z" fill="#F45221"/>
<path d="M731.871 386.705C734.366 386.705 736.388 384.849 736.388 382.559C736.388 380.27 734.366 378.414 731.871 378.414C729.376 378.414 727.354 380.27 727.354 382.559C727.354 384.849 729.376 386.705 731.871 386.705Z" fill="#F45221"/>
<path d="M746.928 386.705C749.422 386.705 751.445 384.849 751.445 382.559C751.445 380.27 749.422 378.414 746.928 378.414C744.433 378.414 742.411 380.27 742.411 382.559C742.411 384.849 744.433 386.705 746.928 386.705Z" fill="#F45221"/>
<path d="M781.558 547H531.615C529.619 546.998 527.706 546.269 526.294 544.974C524.883 543.679 524.089 541.923 524.087 540.091V462.707C524.089 460.875 524.883 459.119 526.294 457.824C527.706 456.528 529.619 455.8 531.615 455.798H781.558C783.554 455.8 785.468 456.528 786.879 457.824C788.291 459.119 789.085 460.875 789.087 462.707V540.091C789.085 541.923 788.291 543.679 786.879 544.974C785.468 546.269 783.554 546.998 781.558 547Z" fill="#E5E5E5"/>
<path d="M629.485 476.526H563.235V483.435H629.485V476.526Z" fill="white"/>
<path d="M716.814 484.817C719.309 484.817 721.331 482.961 721.331 480.671C721.331 478.382 719.309 476.526 716.814 476.526C714.319 476.526 712.297 478.382 712.297 480.671C712.297 482.961 714.319 484.817 716.814 484.817Z" fill="#F45221"/>
<path d="M731.871 484.817C734.366 484.817 736.388 482.961 736.388 480.671C736.388 478.382 734.366 476.526 731.871 476.526C729.376 476.526 727.354 478.382 727.354 480.671C727.354 482.961 729.376 484.817 731.871 484.817Z" fill="#F45221"/>
<path d="M746.928 484.817C749.422 484.817 751.445 482.961 751.445 480.671C751.445 478.382 749.422 476.526 746.928 476.526C744.433 476.526 742.411 478.382 742.411 480.671C742.411 482.961 744.433 484.817 746.928 484.817Z" fill="#F45221"/>
<path d="M481.628 380.145C476.867 380.13 472.127 379.568 467.519 378.47L466.611 378.239L465.769 377.852C435.31 363.836 409.613 345.324 389.392 322.828C372.654 304.097 359.604 282.83 350.829 259.983C340.336 232.63 335.288 203.767 335.925 174.774C335.938 174.166 335.949 173.696 335.949 173.372C335.949 159.278 344.473 146.912 357.665 141.867C367.762 138.006 459.434 103.449 466.058 100.953C478.532 95.2164 491.839 100.004 493.969 100.841C498.745 102.634 583.491 134.445 601.804 142.448C620.678 150.697 625.714 165.514 625.714 172.97C625.714 206.721 619.344 238.265 606.783 266.724C596.638 289.76 582.259 311.027 564.274 329.598C529.573 365.437 494.862 378.143 494.527 378.255C490.379 379.565 486.014 380.204 481.628 380.145ZM473.465 361.588C476.474 362.207 483.403 363.136 487.918 361.624C493.655 359.704 522.707 345.878 549.855 317.839C587.365 279.099 606.397 230.4 606.425 173.094C606.358 171.933 605.46 163.653 593.511 158.431C575.553 150.583 487.468 117.527 486.58 117.194L486.337 117.099C484.491 116.389 478.616 114.894 474.566 116.841L473.755 117.188C472.773 117.558 375.462 154.239 365.084 158.208C357.824 160.984 355.237 167.861 355.237 173.372C355.237 173.775 355.226 174.36 355.21 175.118C354.381 214.329 364.267 310.814 473.465 361.588Z" fill="#3F3D56"/>
<path d="M470.091 109.001C470.091 109.001 371.896 146.014 361.375 150.037C350.854 154.061 345.593 163.716 345.593 173.372C345.593 183.028 337.703 309.022 470.091 369.939C470.091 369.939 482.107 372.991 491.223 369.939C500.339 366.888 616.07 315.391 616.07 172.97C616.07 172.97 616.07 158.486 597.658 150.44C579.246 142.393 490.229 109.001 490.229 109.001C490.229 109.001 479.297 104.575 470.091 109.001Z" fill="#F45221"/>
<path opacity="0.2" d="M480.612 137.968V335.422C480.612 335.422 579.685 291.654 578.808 176.591L480.612 137.968Z" fill="black"/>
<path d="M908.898 547H1.10169C0.809507 547 0.529286 546.893 0.322678 546.704C0.11607 546.514 0 546.257 0 545.989C0 545.721 0.11607 545.464 0.322678 545.274C0.529286 545.084 0.809507 544.978 1.10169 544.978H908.898C909.19 544.978 909.471 545.084 909.677 545.274C909.884 545.464 910 545.721 910 545.989C910 546.257 909.884 546.514 909.677 546.704C909.471 546.893 909.19 547 908.898 547Z" fill="#CBCBCB"/>
</g>
<defs>
<clipPath id="clip0_205_46">
<rect width="910" height="547" fill="white"/>
</clipPath>
</defs>
</svg>
