<svg width="553" height="454" viewBox="0 0 653 454" fill="none" xmlns="http://www.w3.org/2000/svg">
<g clip-path="url(#clip0_221_17)">
<path d="M649.383 26.9178H3.61714C2.65814 26.9168 1.73871 26.5567 1.06059 25.9165C0.382475 25.2763 0.0010482 24.4082 0 23.5028V3.41497C0.0010482 2.50957 0.382475 1.64153 1.06059 1.00131C1.73871 0.361089 2.65814 0.000987579 3.61714 0H649.383C650.342 0.000989615 651.261 0.3611 651.939 1.00132C652.618 1.64154 652.999 2.50957 653 3.41497V23.5029C652.999 24.4083 652.617 25.2763 651.939 25.9165C651.261 26.5567 650.342 26.9168 649.383 26.9178Z" fill="#E4E4E4"/>
<path d="M20.9919 17.3275C23.8281 17.3275 26.1273 15.1567 26.1273 12.479C26.1273 9.80133 23.8281 7.63062 20.9919 7.63062C18.1557 7.63062 15.8564 9.80133 15.8564 12.479C15.8564 15.1567 18.1557 17.3275 20.9919 17.3275Z" fill="white"/>
<path d="M40.4843 17.3275C43.3205 17.3275 45.6197 15.1567 45.6197 12.479C45.6197 9.80133 43.3205 7.63062 40.4843 7.63062C37.6481 7.63062 35.3489 9.80133 35.3489 12.479C35.3489 15.1567 37.6481 17.3275 40.4843 17.3275Z" fill="white"/>
<path d="M59.9775 17.3275C62.8137 17.3275 65.1129 15.1567 65.1129 12.479C65.1129 9.80133 62.8137 7.63062 59.9775 7.63062C57.1413 7.63062 54.842 9.80133 54.842 12.479C54.842 15.1567 57.1413 17.3275 59.9775 17.3275Z" fill="white"/>
<path d="M630.284 9.14195H607.838C607.398 9.14104 606.976 8.97524 606.665 8.68095C606.354 8.38667 606.179 7.98792 606.179 7.57219C606.179 7.15647 606.354 6.75773 606.665 6.46344C606.976 6.16916 607.398 6.00336 607.838 6.00244H630.284C630.725 6.00214 631.148 6.16699 631.46 6.46077C631.772 6.75455 631.947 7.15324 631.948 7.56925C631.949 7.98526 631.775 8.38457 631.464 8.67945C631.153 8.97434 630.731 9.14069 630.291 9.14195H630.284Z" fill="white"/>
<path d="M630.284 15.0287H607.838C607.398 15.0278 606.976 14.862 606.665 14.5677C606.354 14.2734 606.179 13.8746 606.179 13.4589C606.179 13.0432 606.354 12.6444 606.665 12.3502C606.976 12.0559 607.398 11.8901 607.838 11.8892H630.284C630.725 11.8889 631.148 12.0537 631.46 12.3475C631.772 12.6413 631.947 13.04 631.948 13.456C631.949 13.872 631.775 14.2713 631.464 14.5662C631.153 14.8611 630.731 15.0274 630.291 15.0287H630.284Z" fill="white"/>
<path d="M630.284 20.9152H607.838C607.397 20.9152 606.974 20.7498 606.663 20.4554C606.351 20.161 606.176 19.7617 606.176 19.3454C606.176 18.9291 606.351 18.5298 606.663 18.2354C606.974 17.941 607.397 17.7756 607.838 17.7756H630.284C630.725 17.7749 631.149 17.9395 631.461 18.2333C631.773 18.5272 631.949 18.9261 631.95 19.3424C631.951 19.7588 631.777 20.1584 631.465 20.4533C631.154 20.7482 630.732 20.9144 630.291 20.9152H630.284Z" fill="white"/>
<path d="M184.132 399.178C186.508 381.138 198.35 363.364 216.572 357.493C209.386 376.061 209.387 396.43 216.577 414.997C219.377 422.148 223.28 429.826 220.646 437.033C219.007 441.518 214.998 444.949 210.517 447.094C206.035 449.239 201.062 450.262 196.15 451.264L195.184 452.019C187.387 435.397 181.755 417.217 184.132 399.178Z" fill="#F0F0F0"/>
<path d="M216.753 357.834C206.141 369.06 199.545 383.158 197.903 398.124C197.489 401.34 197.614 404.598 198.274 407.777C199.023 410.854 200.632 413.686 202.932 415.978C205.032 418.156 207.446 420.154 208.948 422.776C209.696 424.128 210.133 425.615 210.229 427.138C210.326 428.661 210.08 430.187 209.509 431.614C208.182 435.205 205.568 438.132 202.907 440.911C199.952 443.996 196.83 447.157 195.574 451.247C195.422 451.743 194.616 451.491 194.768 450.996C196.954 443.88 204.271 439.837 207.76 433.428C209.388 430.437 210.072 426.965 208.545 423.808C207.211 421.047 204.723 418.985 202.577 416.797C200.298 414.592 198.625 411.894 197.706 408.938C196.876 405.801 196.618 402.554 196.943 399.335C197.551 392.077 199.364 384.954 202.315 378.228C205.639 370.534 210.332 363.434 216.192 357.234C216.554 356.85 217.114 357.453 216.753 357.835L216.753 357.834Z" fill="white"/>
<path d="M198.131 393.276C195.509 392.675 193.198 391.213 191.612 389.152C190.026 387.091 189.267 384.565 189.472 382.025C189.481 381.921 189.533 381.825 189.615 381.757C189.698 381.688 189.806 381.653 189.916 381.658C190.026 381.663 190.129 381.709 190.205 381.784C190.28 381.86 190.321 381.961 190.319 382.065C190.124 384.43 190.831 386.783 192.313 388.699C193.794 390.616 195.952 391.969 198.397 392.515C198.929 392.634 198.66 393.394 198.131 393.276Z" fill="white"/>
<path d="M201.714 415.006C206.45 412.336 209.946 408.079 211.505 403.084C211.659 402.589 212.465 402.84 212.311 403.335C210.678 408.53 207.03 412.954 202.095 415.722C201.625 415.985 201.246 415.268 201.714 415.006Z" fill="white"/>
<path d="M206.426 371.293C207.389 371.725 208.451 371.925 209.517 371.874C210.582 371.823 211.617 371.523 212.529 371.001C212.996 370.731 213.374 371.449 212.91 371.716C211.9 372.288 210.756 372.619 209.58 372.677C208.403 372.736 207.229 372.522 206.16 372.054C206.055 372.018 205.969 371.945 205.919 371.851C205.869 371.757 205.859 371.649 205.89 371.548C205.926 371.447 206.002 371.364 206.103 371.316C206.203 371.269 206.319 371.26 206.426 371.293Z" fill="white"/>
<path d="M272.118 389.714C271.831 389.89 271.545 390.066 271.258 390.248C267.42 392.631 263.794 395.304 260.415 398.241C260.15 398.464 259.885 398.694 259.627 398.924C251.565 406.082 244.982 414.591 240.21 424.018C238.315 427.77 236.725 431.654 235.454 435.634C233.7 441.132 232.26 447.224 228.786 451.721C228.43 452.194 228.042 452.646 227.626 453.073H196.234C196.163 453.04 196.091 453.013 196.019 452.979L194.766 453.033C194.816 452.823 194.873 452.607 194.924 452.397C194.952 452.276 194.988 452.154 195.017 452.032C195.038 451.951 195.06 451.87 195.074 451.795C195.081 451.768 195.088 451.741 195.095 451.721C195.11 451.647 195.131 451.579 195.146 451.511C195.461 450.301 195.785 449.091 196.12 447.88C196.12 447.873 196.12 447.874 196.127 447.867C198.58 438.621 202.186 429.682 206.87 421.238C207.013 420.988 207.156 420.731 207.314 420.481C209.483 416.743 211.972 413.179 214.756 409.824C216.286 407.992 217.914 406.233 219.633 404.556C224.084 400.231 229.227 396.594 234.874 393.778C246.133 388.166 259.168 386.015 271.201 389.444C271.509 389.532 271.81 389.62 272.118 389.714Z" fill="#F0F0F0"/>
<path d="M272.047 390.09C256.415 393.021 242.159 400.528 231.303 411.545C228.921 413.877 226.944 416.549 225.444 419.463C224.08 422.346 223.558 425.521 223.933 428.659C224.221 431.591 224.874 434.559 224.402 437.506C224.136 439.011 223.537 440.446 222.643 441.717C221.748 442.988 220.58 444.067 219.213 444.881C215.864 446.995 211.91 447.846 208.013 448.552C203.686 449.336 199.178 450.085 195.567 452.637C195.129 452.946 194.647 452.287 195.084 451.978C201.367 447.538 209.787 448.47 216.66 445.336C219.867 443.873 222.627 441.489 223.422 438.101C224.117 435.138 223.445 432.077 223.127 429.11C222.714 426.055 223.099 422.95 224.249 420.067C225.588 417.091 227.453 414.351 229.764 411.965C234.878 406.516 240.868 401.86 247.514 398.167C255.074 393.913 263.35 390.911 271.982 389.291C272.516 389.191 272.578 389.991 272.047 390.09H272.047Z" fill="white"/>
<path d="M234.577 407.803C232.867 405.833 231.954 403.352 232.002 400.805C232.05 398.258 233.055 395.81 234.838 393.898C235.2 393.512 235.852 394.025 235.489 394.411C233.825 396.189 232.889 398.47 232.85 400.842C232.811 403.214 233.671 405.521 235.275 407.347C235.623 407.744 234.923 408.198 234.577 407.803Z" fill="white"/>
<path d="M223.58 427.19C229.064 427.75 234.57 426.339 239.001 423.236C239.44 422.929 239.922 423.588 239.484 423.895C234.867 427.115 229.134 428.573 223.428 427.978C222.884 427.921 223.039 427.133 223.58 427.19Z" fill="white"/>
<path d="M255.219 394.966C255.713 395.859 256.433 396.622 257.316 397.186C258.199 397.751 259.217 398.1 260.278 398.201C260.822 398.252 260.667 399.04 260.126 398.99C258.955 398.872 257.831 398.486 256.854 397.864C255.877 397.242 255.076 396.404 254.521 395.422C254.461 395.334 254.438 395.227 254.458 395.124C254.478 395.02 254.539 394.928 254.629 394.865C254.721 394.805 254.835 394.782 254.946 394.801C255.056 394.82 255.155 394.879 255.219 394.966L255.219 394.966Z" fill="white"/>
<path d="M211.657 140.063H107.797C104.587 140.06 101.51 138.854 99.241 136.712C96.9715 134.569 95.695 131.664 95.6914 128.634V75.2281C95.695 72.1981 96.9716 69.2931 99.241 67.1505C101.51 65.008 104.587 63.8029 107.797 63.7996H211.657C214.866 63.8029 217.943 65.008 220.213 67.1505C222.482 69.2931 223.759 72.1981 223.762 75.2281V128.634C223.759 131.664 222.482 134.569 220.213 136.712C217.943 138.854 214.866 140.06 211.657 140.063Z" fill="#E6E6E6"/>
<path d="M370.22 140.063H266.361C263.151 140.06 260.074 138.854 257.805 136.712C255.535 134.569 254.259 131.664 254.255 128.634V75.2281C254.259 72.1981 255.535 69.2931 257.805 67.1505C260.074 65.008 263.151 63.8029 266.361 63.7996H370.22C373.43 63.8029 376.507 65.008 378.776 67.1505C381.046 69.2931 382.322 72.1981 382.326 75.2281V128.634C382.322 131.664 381.046 134.569 378.776 136.712C376.507 138.854 373.43 140.06 370.22 140.063Z" fill="#F45221"/>
<path d="M528.784 140.063H424.924C421.715 140.06 418.638 138.854 416.368 136.712C414.099 134.569 412.823 131.664 412.819 128.634V75.2281C412.823 72.1981 414.099 69.2931 416.369 67.1505C418.638 65.008 421.715 63.8029 424.924 63.7996H528.784C531.994 63.8029 535.071 65.008 537.34 67.1505C539.609 69.2931 540.886 72.1981 540.89 75.2281V128.634C540.886 131.664 539.61 134.569 537.34 136.712C535.071 138.854 531.994 140.06 528.784 140.063Z" fill="#E6E6E6"/>
<path d="M211.657 259.057H107.797C104.587 259.053 101.51 257.848 99.241 255.706C96.9715 253.563 95.695 250.658 95.6914 247.628V194.222C95.695 191.192 96.9716 188.287 99.241 186.144C101.51 184.002 104.587 182.797 107.797 182.793H211.657C214.866 182.797 217.943 184.002 220.213 186.144C222.482 188.287 223.759 191.192 223.762 194.222V247.628C223.759 250.658 222.482 253.563 220.213 255.706C217.943 257.848 214.866 259.053 211.657 259.057Z" fill="#F2F2F2"/>
<path d="M370.22 259.057H266.361C263.151 259.053 260.074 257.848 257.805 255.706C255.535 253.563 254.259 250.658 254.255 247.628V194.222C254.259 191.192 255.535 188.287 257.805 186.144C260.074 184.002 263.151 182.797 266.361 182.793H370.22C373.43 182.797 376.507 184.002 378.776 186.144C381.046 188.287 382.322 191.192 382.326 194.222V247.628C382.322 250.658 381.046 253.563 378.776 255.706C376.507 257.848 373.43 259.053 370.22 259.057Z" fill="#E6E6E6"/>
<path d="M377.554 268.884C387.799 268.884 396.104 261.043 396.104 251.371C396.104 241.699 387.799 233.858 377.554 233.858C367.309 233.858 359.004 241.699 359.004 251.371C359.004 261.043 367.309 268.884 377.554 268.884Z" fill="#F45221"/>
<path d="M385.257 249.9H378.95V243.946C378.95 243.762 378.912 243.58 378.837 243.41C378.762 243.24 378.653 243.085 378.515 242.955C378.377 242.825 378.214 242.722 378.034 242.652C377.854 242.581 377.661 242.545 377.466 242.545C377.271 242.545 377.078 242.581 376.898 242.652C376.718 242.722 376.554 242.825 376.417 242.955C376.279 243.085 376.169 243.24 376.095 243.41C376.02 243.58 375.982 243.762 375.982 243.946V249.9H369.675C369.48 249.9 369.287 249.937 369.107 250.007C368.927 250.078 368.763 250.181 368.626 250.311C368.488 250.441 368.378 250.595 368.304 250.765C368.229 250.935 368.191 251.118 368.191 251.302C368.191 251.486 368.229 251.668 368.304 251.838C368.378 252.008 368.488 252.162 368.626 252.292C368.763 252.422 368.927 252.526 369.107 252.596C369.287 252.667 369.48 252.703 369.675 252.703H375.982V258.657C375.982 258.841 376.02 259.023 376.095 259.193C376.169 259.363 376.279 259.518 376.417 259.648C376.554 259.778 376.718 259.881 376.898 259.952C377.078 260.022 377.271 260.058 377.466 260.058C377.86 260.058 378.237 259.911 378.515 259.648C378.794 259.385 378.95 259.029 378.95 258.657V252.703H385.257C385.452 252.703 385.645 252.666 385.825 252.596C386.005 252.526 386.168 252.422 386.306 252.292C386.444 252.162 386.553 252.008 386.628 251.838C386.702 251.668 386.741 251.486 386.741 251.302C386.741 251.118 386.702 250.935 386.628 250.765C386.553 250.595 386.444 250.441 386.306 250.311C386.168 250.181 386.005 250.078 385.825 250.007C385.645 249.937 385.452 249.9 385.257 249.9L385.257 249.9Z" fill="white"/>
<path d="M538.557 152.961C548.802 152.961 557.107 145.12 557.107 135.448C557.107 125.776 548.802 117.935 538.557 117.935C528.312 117.935 520.007 125.776 520.007 135.448C520.007 145.12 528.312 152.961 538.557 152.961Z" fill="#F45221"/>
<path d="M546.26 133.977H539.953V128.023C539.953 127.839 539.915 127.657 539.84 127.487C539.766 127.317 539.656 127.162 539.518 127.032C539.381 126.902 539.217 126.799 539.037 126.728C538.857 126.658 538.664 126.622 538.469 126.622C538.274 126.622 538.081 126.658 537.901 126.728C537.721 126.799 537.557 126.902 537.42 127.032C537.282 127.162 537.173 127.317 537.098 127.487C537.023 127.657 536.985 127.839 536.985 128.023V133.977H530.678C530.483 133.977 530.29 134.014 530.11 134.084C529.93 134.154 529.767 134.258 529.629 134.388C529.491 134.518 529.382 134.672 529.307 134.842C529.232 135.012 529.194 135.195 529.194 135.379C529.194 135.563 529.232 135.745 529.307 135.915C529.382 136.085 529.491 136.239 529.629 136.369C529.767 136.499 529.93 136.603 530.11 136.673C530.29 136.743 530.483 136.78 530.678 136.78H536.985V142.734C536.985 142.918 537.023 143.1 537.098 143.27C537.173 143.44 537.282 143.595 537.42 143.725C537.557 143.855 537.721 143.958 537.901 144.029C538.081 144.099 538.274 144.135 538.469 144.135C538.863 144.135 539.24 143.988 539.518 143.725C539.797 143.462 539.953 143.106 539.953 142.734V136.78H546.26C546.455 136.78 546.648 136.743 546.828 136.673C547.008 136.603 547.171 136.499 547.309 136.369C547.447 136.239 547.556 136.085 547.631 135.915C547.706 135.745 547.744 135.562 547.744 135.378C547.744 135.194 547.706 135.012 547.631 134.842C547.556 134.672 547.447 134.518 547.309 134.388C547.171 134.258 547.008 134.154 546.828 134.084C546.648 134.014 546.455 133.977 546.26 133.977L546.26 133.977Z" fill="white"/>
<path d="M218.99 151.426C229.235 151.426 237.54 143.585 237.54 133.913C237.54 124.24 229.235 116.4 218.99 116.4C208.745 116.4 200.44 124.24 200.44 133.913C200.44 143.585 208.745 151.426 218.99 151.426Z" fill="#F45221"/>
<path d="M226.693 132.442H220.386V126.488C220.386 126.304 220.347 126.121 220.273 125.951C220.198 125.781 220.089 125.627 219.951 125.497C219.813 125.367 219.65 125.264 219.47 125.193C219.29 125.123 219.097 125.086 218.902 125.086C218.707 125.086 218.514 125.123 218.334 125.193C218.154 125.264 217.99 125.367 217.852 125.497C217.715 125.627 217.605 125.781 217.531 125.951C217.456 126.121 217.418 126.304 217.418 126.488V132.442H211.111C210.916 132.442 210.723 132.478 210.543 132.549C210.363 132.619 210.199 132.722 210.061 132.852C209.924 132.982 209.814 133.137 209.74 133.307C209.665 133.477 209.627 133.659 209.627 133.843C209.627 134.215 209.783 134.571 210.061 134.834C210.34 135.097 210.717 135.244 211.111 135.244H217.418V141.199C217.418 141.383 217.456 141.565 217.531 141.735C217.605 141.905 217.715 142.059 217.852 142.189C217.99 142.32 218.154 142.423 218.334 142.493C218.514 142.564 218.707 142.6 218.902 142.6C219.097 142.6 219.29 142.564 219.47 142.493C219.65 142.423 219.813 142.32 219.951 142.189C220.089 142.059 220.198 141.905 220.273 141.735C220.347 141.565 220.386 141.383 220.386 141.199V135.244H226.693C226.888 135.244 227.081 135.208 227.261 135.138C227.441 135.067 227.604 134.964 227.742 134.834C227.88 134.704 227.989 134.549 228.064 134.379C228.138 134.209 228.177 134.027 228.177 133.843C228.177 133.471 228.02 133.115 227.742 132.852C227.464 132.59 227.086 132.442 226.693 132.442V132.442Z" fill="white"/>
<path d="M357.868 109.72C358.206 110.686 358.316 111.711 358.19 112.722C358.063 113.733 357.704 114.705 357.136 115.571C356.568 116.436 355.807 117.174 354.905 117.731C354.003 118.289 352.982 118.653 351.915 118.798L343.338 174.073L329.268 167.585L343.419 112.41C343.281 110.701 343.81 109.004 344.909 107.639C346.007 106.274 347.597 105.338 349.378 105.006C351.159 104.674 353.007 104.971 354.572 105.84C356.136 106.709 357.309 108.089 357.868 109.72L357.868 109.72Z" fill="#9E616A"/>
<path d="M255.422 286.752C256.049 285.923 256.475 284.975 256.671 283.974C256.867 282.973 256.829 281.944 256.558 280.959C256.287 279.973 255.791 279.056 255.104 278.272C254.417 277.487 253.557 276.854 252.583 276.417L258.369 217.622L246.25 223.487L242.465 280.144C241.797 281.737 241.771 283.507 242.392 285.117C243.013 286.728 244.238 288.067 245.835 288.881C247.432 289.696 249.29 289.929 251.057 289.537C252.824 289.144 254.377 288.153 255.422 286.752H255.422Z" fill="#9E616A"/>
<path d="M263.702 257.014L315.712 255.126L318.712 204.134H258.701L263.702 257.014Z" fill="#9E616A"/>
<path d="M254.049 437.095L262.937 437.094L267.165 404.73H254.048L254.049 437.095Z" fill="#9E616A"/>
<path d="M251.845 432.956L265.894 432.164V437.847L279.251 446.556C279.911 446.987 280.408 447.604 280.669 448.32C280.931 449.036 280.943 449.811 280.704 450.534C280.466 451.257 279.989 451.888 279.343 452.337C278.697 452.786 277.916 453.027 277.115 453.027H260.388L257.505 447.406L256.38 453.027H250.073L251.845 432.956Z" fill="#2F2E41"/>
<path d="M293.579 437.095L302.467 437.094L306.695 404.73H293.578L293.579 437.095Z" fill="#9E616A"/>
<path d="M262.98 245.044C262.98 245.044 247.419 256.906 255.855 299.266C254.57 299.41 256.025 301.801 256.025 301.801L257.242 336.317L258.183 340.272L255.055 346.656L256.345 353.591L252.37 416.536L267.053 418.329L281.104 352.964L283.78 345.615L286.464 339.174L285.017 332.304L286.204 321.643L294.305 285.692L296.288 348.043L293.52 353.996L295.06 360.53L291.63 363.999L290.274 422.336L305.93 423.028L318.885 364.219L317.88 356.715L319.604 351.166V338.205L322.556 332.088L328.991 298.733C328.991 298.733 330.932 272.663 316.768 241.985L262.98 245.044Z" fill="#2F2E41"/>
<path d="M269.322 161.756C269.322 161.756 249.667 165.426 246.281 181.251C242.894 197.077 240.715 232.889 240.715 232.889L241.457 237.876L260.47 242.038L272.605 191.859L269.322 161.756Z" fill="#3F3D56"/>
<path d="M314.178 167.097C314.178 167.097 316.171 164.461 327.328 164.055C327.787 164.038 327.219 163.178 327.219 163.178L332.584 138.417L350.466 147.764L347.448 173.723L318.064 205.276L314.178 167.097Z" fill="#3F3D56"/>
<path d="M303.032 240.913C294.614 240.913 281.943 240.036 262.867 237.362C261.638 237.188 260.5 236.646 259.621 235.818C258.741 234.989 258.165 233.917 257.976 232.757C257.353 232.136 256.948 231.349 256.816 230.503C256.683 229.657 256.83 228.793 257.235 228.028L257.253 227.995L256.821 227.514C256.152 226.773 255.76 225.845 255.703 224.873C255.646 223.901 255.928 222.938 256.506 222.131L250.599 182.23C249.999 178.268 250.917 174.234 253.187 170.853C255.456 167.473 258.93 164.968 262.981 163.789L265.162 163.148L273.409 152.963L273.572 152.965L300.049 153.298L308.641 163.599L322.53 166.691L322.566 166.89L325.791 184.482C327.468 193.631 323.622 197.23 318.712 205.276L320.153 227.873L320.807 228.994C321.17 229.615 321.291 230.336 321.15 231.032C321.01 231.729 320.615 232.357 320.036 232.808C320.474 233.99 320.504 235.273 320.121 236.472L319.782 237.532C319.782 237.562 319.692 237.993 318.958 238.519C317.636 239.467 313.84 240.913 303.032 240.913Z" fill="#3F3D56"/>
<path d="M291.375 432.956L305.424 432.164V437.847L318.781 446.556C319.441 446.987 319.938 447.604 320.2 448.32C320.461 449.036 320.473 449.811 320.235 450.534C319.996 451.257 319.519 451.888 318.873 452.337C318.228 452.786 317.447 453.027 316.645 453.027H299.919L297.036 447.406L295.91 453.027H289.604L291.375 432.956Z" fill="#2F2E41"/>
<path d="M306.131 130.768C307.967 120.085 300.283 110.019 288.967 108.286C277.651 106.552 266.989 113.807 265.153 124.49C263.317 135.174 271.002 145.24 282.317 146.973C293.633 148.707 304.295 141.452 306.131 130.768Z" fill="#9E616A"/>
<path d="M297.779 108.481C290.172 103.541 283.472 102.789 277.969 104.19C277.256 103.148 276.255 102.309 275.075 101.764C270.783 91.553 257.721 85.4211 246.512 88.4019C235.23 91.402 227.445 103.201 229.568 114.084C230.884 120.829 235.381 126.671 237.189 133.314C240.69 146.174 232.15 160.905 218.788 165.051C231.439 167.449 245.364 160.154 249.903 148.75C252.107 143.211 252.24 137.163 252.52 131.252C252.594 127.172 253.123 123.111 254.1 119.136C254.584 117.352 255.269 115.623 256.142 113.976C258.044 110.358 261.203 107.464 265.092 105.779C264.743 106.796 264.656 107.876 264.837 108.931C265.019 109.986 265.463 110.985 266.134 111.846C263.167 115.355 261.552 119.149 261.552 121.422C255.389 132.056 264.202 141.191 275.467 147.01C279.96 149.343 285.148 150.197 290.211 149.437L290.683 147.537L291.321 149.248L293.453 154.984C295.912 156.107 298.349 157.338 300.765 158.677C299.847 154.607 299.105 150.544 298.594 146.572C297.886 141.166 300.352 133.118 302.132 128.224C303.235 125.207 303.801 122.039 303.807 118.848V118.708L305.539 123.962L311.846 121.422C310.673 115.068 311.846 107.855 297.779 108.481Z" fill="#2F2E41"/>
<path d="M557.147 454H95.8532C95.5973 453.999 95.3523 453.902 95.1718 453.731C94.9912 453.559 94.8899 453.328 94.8899 453.086C94.8899 452.844 94.9912 452.613 95.1718 452.441C95.3523 452.27 95.5973 452.173 95.8532 452.172H557.147C557.403 452.173 557.648 452.27 557.828 452.441C558.009 452.613 558.11 452.844 558.11 453.086C558.11 453.328 558.009 453.559 557.828 453.731C557.648 453.902 557.403 453.999 557.147 454Z" fill="#CCCCCC"/>
<path d="M216.87 271.185C227.114 271.185 235.419 263.345 235.419 253.672C235.419 244 227.114 236.159 216.87 236.159C206.625 236.159 198.32 244 198.32 253.672C198.32 263.345 206.625 271.185 216.87 271.185Z" fill="#E6E6E6"/>
<path d="M495.97 243.607H430.908C428.897 243.605 426.97 242.85 425.548 241.508C424.127 240.166 423.327 238.346 423.325 236.448V202.992C423.327 201.094 424.127 199.274 425.548 197.932C426.97 196.59 428.898 195.835 430.908 195.833H495.97C497.981 195.835 499.908 196.59 501.33 197.932C502.752 199.274 503.551 201.094 503.554 202.992V236.448C503.551 238.346 502.752 240.166 501.33 241.508C499.908 242.85 497.981 243.605 495.97 243.607Z" fill="#F2F2F2"/>
<path d="M496.929 230.018C502.369 230.018 506.78 225.854 506.78 220.718C506.78 215.581 502.369 211.417 496.929 211.417C491.488 211.417 487.078 215.581 487.078 220.718C487.078 225.854 491.488 230.018 496.929 230.018Z" fill="#F45221"/>
<path d="M501.019 219.937H497.67V216.775C497.67 216.677 497.65 216.58 497.61 216.49C497.57 216.4 497.512 216.318 497.439 216.248C497.366 216.179 497.279 216.125 497.184 216.087C497.088 216.05 496.985 216.031 496.882 216.031C496.673 216.031 496.472 216.109 496.325 216.248C496.177 216.388 496.094 216.577 496.094 216.775V219.937H492.745C492.536 219.937 492.335 220.015 492.187 220.155C492.039 220.294 491.956 220.483 491.956 220.681C491.956 220.779 491.977 220.875 492.016 220.966C492.056 221.056 492.114 221.138 492.187 221.207C492.26 221.276 492.347 221.331 492.443 221.368C492.539 221.406 492.641 221.425 492.745 221.425H496.094V224.587C496.094 224.685 496.114 224.781 496.154 224.872C496.193 224.962 496.252 225.044 496.325 225.113C496.398 225.182 496.485 225.237 496.58 225.274C496.676 225.312 496.779 225.331 496.882 225.331C497.091 225.331 497.291 225.253 497.439 225.113C497.587 224.974 497.67 224.784 497.67 224.587V221.425H501.019C501.229 221.425 501.429 221.346 501.577 221.207C501.725 221.067 501.808 220.878 501.808 220.681C501.808 220.583 501.787 220.486 501.748 220.396C501.708 220.306 501.65 220.224 501.577 220.155C501.504 220.086 501.417 220.031 501.321 219.993C501.225 219.956 501.123 219.937 501.019 219.937L501.019 219.937Z" fill="white"/>
<path d="M522.477 234.113H468.86C466.584 234.111 464.402 233.256 462.793 231.737C461.184 230.218 460.279 228.158 460.276 226.01V195.793C460.277 195.398 460.444 195.019 460.741 194.74C461.037 194.46 461.439 194.303 461.858 194.303C462.276 194.303 462.678 194.46 462.975 194.74C463.271 195.019 463.438 195.398 463.439 195.793V203.886L525.719 209.231C526.963 209.251 528.148 209.732 529.021 210.57C529.893 211.407 530.383 212.534 530.384 213.709C530.384 213.801 530.375 213.893 530.357 213.984L527.218 229.787C527.175 230.947 526.657 232.047 525.773 232.854C524.888 233.66 523.707 234.112 522.477 234.113ZM463.439 206.884V226.01C463.441 227.367 464.012 228.667 465.029 229.627C466.045 230.586 467.423 231.126 468.86 231.127H522.477C522.896 231.127 523.298 230.969 523.595 230.69C523.891 230.41 524.058 230.03 524.059 229.634C524.059 229.542 524.068 229.45 524.086 229.359L527.217 213.594C527.185 213.219 527.006 212.869 526.714 212.614C526.422 212.358 526.038 212.216 525.64 212.216C525.592 212.216 525.544 212.214 525.497 212.21L463.439 206.884Z" fill="#F45221"/>
<path d="M454.612 248.048C456.068 248.048 457.248 246.934 457.248 245.56C457.248 244.185 456.068 243.071 454.612 243.071C453.157 243.071 451.977 244.185 451.977 245.56C451.977 246.934 453.157 248.048 454.612 248.048Z" fill="#F45221"/>
<path d="M520.369 248.048C521.824 248.048 523.004 246.934 523.004 245.56C523.004 244.185 521.824 243.071 520.369 243.071C518.913 243.071 517.733 244.185 517.733 245.56C517.733 246.934 518.913 248.048 520.369 248.048Z" fill="#F45221"/>
<path d="M523.004 243.071H452.504C452.085 243.071 451.682 242.914 451.386 242.634C451.089 242.354 450.923 241.974 450.923 241.578C450.923 241.182 451.089 240.802 451.386 240.522C451.682 240.243 452.085 240.085 452.504 240.085H523.004C523.424 240.085 523.826 240.243 524.123 240.522C524.419 240.802 524.586 241.182 524.586 241.578C524.586 241.974 524.419 242.354 524.123 242.634C523.826 242.914 523.424 243.071 523.004 243.071Z" fill="#F45221"/>
<path d="M466.075 196.788H452.369C451.951 196.787 451.549 196.63 451.254 196.35C450.958 196.07 450.792 195.691 450.792 195.295C450.792 194.9 450.958 194.521 451.254 194.241C451.549 193.961 451.951 193.803 452.369 193.802H466.075C466.494 193.803 466.895 193.961 467.191 194.241C467.486 194.521 467.652 194.9 467.652 195.295C467.652 195.691 467.486 196.07 467.191 196.35C466.895 196.63 466.494 196.787 466.075 196.788Z" fill="#F45221"/>
<path d="M477.069 242.311C476.691 242.312 476.326 242.184 476.04 241.951L465.645 233.518C465.487 233.39 465.358 233.234 465.263 233.059C465.169 232.884 465.113 232.693 465.097 232.497C465.081 232.302 465.106 232.105 465.171 231.918C465.235 231.732 465.338 231.559 465.474 231.41C465.609 231.261 465.775 231.139 465.96 231.051C466.146 230.962 466.348 230.909 466.556 230.894C466.763 230.88 466.971 230.904 467.169 230.965C467.366 231.027 467.549 231.124 467.706 231.253L478.101 239.686C478.346 239.885 478.52 240.149 478.601 240.445C478.682 240.74 478.665 241.051 478.553 241.337C478.44 241.623 478.238 241.87 477.973 242.044C477.708 242.218 477.392 242.311 477.069 242.311V242.311Z" fill="#F45221"/>
<path d="M479.26 233.196C479.052 233.196 478.846 233.158 478.654 233.082C478.463 233.007 478.288 232.898 478.141 232.759C477.995 232.62 477.878 232.456 477.799 232.275C477.719 232.093 477.678 231.899 477.678 231.703V207.737C477.678 207.341 477.845 206.961 478.141 206.681C478.438 206.401 478.84 206.244 479.26 206.244C479.679 206.244 480.081 206.401 480.378 206.681C480.674 206.961 480.841 207.341 480.841 207.737V231.703C480.841 231.899 480.8 232.093 480.721 232.274C480.641 232.456 480.525 232.62 480.378 232.759C480.231 232.897 480.057 233.007 479.865 233.082C479.673 233.157 479.467 233.196 479.26 233.196H479.26Z" fill="#F45221"/>
<path d="M512.665 233.196C512.457 233.196 512.252 233.158 512.06 233.083C511.868 233.008 511.694 232.898 511.547 232.759C511.4 232.62 511.283 232.456 511.204 232.275C511.124 232.094 511.084 231.899 511.083 231.703V209.728C511.084 209.332 511.251 208.953 511.548 208.674C511.844 208.395 512.246 208.238 512.665 208.238C513.084 208.238 513.485 208.395 513.782 208.674C514.078 208.953 514.245 209.332 514.246 209.728V231.703C514.246 231.899 514.205 232.093 514.126 232.275C514.046 232.456 513.93 232.62 513.783 232.759C513.636 232.898 513.462 233.007 513.27 233.083C513.078 233.158 512.873 233.196 512.665 233.196H512.665Z" fill="#F45221"/>
</g>
<defs>
<clipPath id="clip0_221_17">
<rect width="653" height="454" fill="white"/>
</clipPath>
</defs>
</svg>
